<svg id="Layer_1" data-name="Layer 1" xmlns="http://www.w3.org/2000/svg" viewBox="0 0 100 100"><defs><style>.cls-1{fill:#fcca98;}.cls-2{fill:#98abb5;}.cls-3{fill:#be9a77;}.cls-4{fill:#f37d3b;}.cls-5{fill:#66343a;}.cls-6{fill:#fff;}.cls-7{fill:#885e59;}.cls-8{fill:#3e3e3f;}</style></defs><title>cyclops</title><rect class="cls-1" x="83.52" y="65.08" width="5.52" height="20.99" rx="2.76" ry="2.76" transform="translate(172.56 151.15) rotate(180)"/><rect class="cls-1" x="78.89" y="66.66" width="5.52" height="20.99" rx="2.76" ry="2.76" transform="translate(163.3 154.3) rotate(180)"/><rect class="cls-1" x="75" y="66.66" width="5.52" height="20.99" rx="2.76" ry="2.76" transform="translate(155.51 154.3) rotate(180)"/><rect class="cls-2" x="71.43" y="67.64" width="5.52" height="20.99" rx="2.76" ry="2.76" transform="translate(148.38 156.27) rotate(180)"/><rect class="cls-1" x="67.15" y="28.22" width="19.51" height="47.3" rx="9.75" ry="9.75"/><rect class="cls-1" x="35.04" y="52.7" width="19.51" height="47.3" rx="9.75" ry="9.75"/><rect class="cls-1" x="58.45" y="52.7" width="19.51" height="47.3" rx="9.75" ry="9.75"/><rect class="cls-1" x="34.19" y="11.58" width="43.95" height="71.34" rx="21.97" ry="21.97"/><polyline class="cls-3" points="49.28 31.09 52.94 47.27 53.87 43.47 57.17 57.66 59.68 50.82 62.26 59.56 65.27 52.21 68.72 58.17 71.23 50.95 75.03 56.39 77.4 51.45 79.76 56.01 85.01 28.22"/><path class="cls-1" d="M80.65,13.37a4.27,4.27,0,0,0,8.53,0c0-2.35,1.19-6.46-1.16-6.46S80.65,11,80.65,13.37Z"/><rect class="cls-1" x="46.9" y="2.12" width="40.5" height="37.84" rx="15.57" ry="15.57"/><path class="cls-1" d="M51.31,12.67a4.27,4.27,0,1,1-8.53,0c0-2.35-1.19-6.46,1.17-6.46S51.31,10.32,51.31,12.67Z"/><rect class="cls-4" x="73.13" y="14.7" width="10.45" height="15.39" rx="5.22" ry="5.22"/><rect class="cls-4" x="71.19" y="25.33" width="16.41" height="8.02" rx="4.01" ry="4.01"/><rect class="cls-4" x="78.61" y="19.65" width="6.46" height="10.04" rx="3.23" ry="3.23"/><rect class="cls-1" x="56.43" width="21.43" height="13.82" rx="6.91" ry="6.91"/><path class="cls-5" d="M38,72.54h0A10.48,10.48,0,0,1,27.58,62.1V32.83A10.48,10.48,0,0,1,38,22.39h0A10.47,10.47,0,0,1,48.47,32.83L74.19,69.14C74.19,74.88,43.77,72.54,38,72.54Z"/><rect class="cls-1" x="34.19" y="31.18" width="5.6" height="13.79" rx="2.8" ry="2.8"/><rect class="cls-6" x="59.71" y="29.69" width="4.93" height="9.47" rx="2.46" ry="2.46"/><rect class="cls-6" x="66.16" y="31.63" width="3.01" height="5.86" rx="1.5" ry="1.5"/><rect class="cls-1" x="55.03" y="33.35" width="36.4" height="11.62" rx="5.81" ry="5.81"/><path class="cls-5" d="M36.07,66.26s12.7,6.6,11.61,16.65h1.6l2,4.14,2.58-2,3,2,5.31-3,5,1.87s12-15.92,10.47-20.33C77.62,65.64,67.42,76,36.07,66.26Z"/><rect class="cls-7" x="8.57" y="75.52" width="62.46" height="6.45" rx="3.22" ry="3.22"/><rect class="cls-1" x="21.72" y="28.22" width="19.51" height="47.3" rx="9.75" ry="9.75"/><rect class="cls-1" x="35.04" y="87.64" width="23.41" height="12.36" rx="6.18" ry="6.18"/><rect class="cls-1" x="58.45" y="87.64" width="23.41" height="12.36" rx="6.18" ry="6.18"/><rect class="cls-1" x="20.19" y="65.08" width="5.52" height="20.99" rx="2.76" ry="2.76"/><rect class="cls-1" x="24.82" y="66.66" width="5.52" height="20.99" rx="2.76" ry="2.76"/><rect class="cls-1" x="28.72" y="66.66" width="5.52" height="20.99" rx="2.76" ry="2.76"/><rect class="cls-1" x="32.28" y="67.64" width="5.52" height="20.99" rx="2.76" ry="2.76"/><circle class="cls-6" cx="73.28" cy="9.96" r="5.08"/><circle class="cls-8" cx="73.85" cy="9.96" r="2.82"/><path class="cls-3" d="M47.66,6.91,46.9,18.67l3.21-3V26.47L51.9,14.7l5-11.55S54.29,1.27,47.66,6.91Z"/></svg>